<svg width="490" height="332" viewBox="0 0 490 332" fill="none" xmlns="http://www.w3.org/2000/svg">
<path d="M80.1507 233.864C75.6841 217.848 54.5918 219.327 54.5918 219.327L55.0881 230.414C67.2472 228.443 74.9397 242.488 74.9397 242.488L80.1507 233.864Z" fill="#F5F5F7"/>
<path d="M287.354 144.879C311.921 152.271 327.057 124.182 327.057 124.182L312.169 115.805C304.973 133.052 280.406 131.081 280.406 131.081L287.354 144.879Z" fill="#F5F5F7"/>
<path opacity="0.2" d="M412.17 254.951C407.455 241.646 389.589 244.11 389.589 244.11L390.581 253.473C400.755 251.009 407.952 262.589 407.952 262.589L412.17 254.951Z" fill="#DD3131"/>
<path d="M263.28 11.0213C258.566 -2.28396 240.699 0.179981 240.699 0.179981L241.692 9.54297C251.866 7.07902 259.062 18.6596 259.062 18.6596L263.28 11.0213Z" fill="#F5F5F7"/>
<path opacity="0.2" d="M156.58 173.641C151.865 160.336 133.999 162.8 133.999 162.8L134.992 172.163C145.166 169.699 152.362 181.28 152.362 181.28L156.58 173.641Z" fill="#DD3131"/>
<path opacity="0.2" d="M158.817 19.7114C144.673 21.9289 143.929 39.6693 143.929 39.6693L153.606 40.1621C153.11 29.8136 165.765 24.8857 165.765 24.8857L158.817 19.7114Z" fill="#DD3131"/>
<path opacity="0.2" d="M93.7977 329.676C118.364 337.068 133.501 308.979 133.501 308.979L118.612 300.602C111.416 317.849 86.8496 315.878 86.8496 315.878L93.7977 329.676Z" fill="#DD3131"/>
<path d="M362.049 186.027C363.786 174.693 350.138 170.011 350.138 170.011L347.408 177.157C355.597 179.128 356.341 189.969 356.341 189.969L362.049 186.027Z" fill="#F5F5F7"/>
<path opacity="0.2" d="M429.98 78.8458C420.549 85.0056 425.761 98.3109 425.761 98.3109L432.959 95.6006C428.987 88.2087 436.682 80.3241 436.682 80.3241L429.98 78.8458Z" fill="#DD3131"/>
<path d="M254.103 322.093C223.552 322.093 198.711 297.428 198.711 267.092C198.711 236.756 223.552 212.091 254.103 212.091C284.654 212.091 309.495 236.756 309.495 267.092C309.495 297.428 284.654 322.093 254.103 322.093ZM254.103 218.044C226.692 218.044 204.421 240.158 204.421 267.375C204.421 294.592 226.692 316.706 254.103 316.706C281.513 316.706 303.784 294.592 303.784 267.375C303.784 240.158 281.513 218.044 254.103 218.044Z" fill="#21D3A0"/>
<path d="M250.113 284.102C249.542 284.102 248.686 283.818 248.115 283.535C243.261 279.282 234.98 271.911 233.838 270.493C232.982 269.076 233.267 267.375 234.695 266.524C236.122 265.674 237.836 265.957 238.692 267.375C239.549 268.225 244.688 273.045 250.113 277.865L278.095 251.498C279.237 250.364 280.95 250.364 282.092 251.498C283.234 252.632 283.234 254.333 282.092 255.467L252.112 283.535C251.541 283.818 250.684 284.102 250.113 284.102Z" fill="#21D3A0"/>
<path d="M392.814 322.566C388.347 306.55 367.255 308.029 367.255 308.029L367.751 319.116C379.91 317.145 387.603 331.19 387.603 331.19L392.814 322.566Z" fill="#21D3A0"/>
<path d="M213.651 68.9907C202.236 70.2226 200.995 84.2671 200.995 84.2671L208.688 85.2527C208.688 76.8753 219.11 73.4258 219.11 73.4258L213.651 68.9907Z" fill="#21D3A0"/>
<path d="M327.549 52.2365C334.497 69.7305 358.071 65.7882 358.071 65.7882L356.085 53.222C342.686 56.918 332.512 41.8879 332.512 41.8879L327.549 52.2365Z" fill="#21D3A0"/>
<path d="M213.651 179.868C202.236 181.1 200.995 195.144 200.995 195.144L208.688 196.13C208.688 187.752 219.11 184.303 219.11 184.303L213.651 179.868Z" fill="#21D3A0"/>
<path d="M116.382 82.5425C118.119 71.2084 104.471 66.5269 104.471 66.5269L101.741 73.6723C109.93 75.6435 110.674 86.4848 110.674 86.4848L116.382 82.5425Z" fill="#21D3A0"/>
<path d="M0.118692 165.085C-1.86647 182.825 21.7073 187.014 21.7073 187.014L25.9258 175.433C11.7815 174.201 9.79634 157.693 9.79634 157.693L0.118692 165.085Z" fill="#21D3A0"/>
<path d="M474.864 205.001C486.279 205.74 490.001 191.942 490.001 191.942L482.557 189.725C481.316 197.856 470.397 199.58 470.397 199.58L474.864 205.001Z" fill="#21D3A0"/>
</svg>
