<svg width="120" height="120" viewBox="0 0 120 120" fill="none" xmlns="http://www.w3.org/2000/svg">
<circle cx="60" cy="60" r="59" fill="#219FFF" fill-opacity="0.15" stroke="#219FFF" stroke-width="2"/>
<path opacity="0.4" d="M81 70.825C80.3 72.7 78.825 74.125 76.9 74.775C74.2 75.675 71.425 76.35 68.625 76.825C68.35 76.875 68.075 76.925 67.8 76.95C67.35 77.025 66.9 77.075 66.45 77.125C65.9 77.2 65.325 77.25 64.75 77.3C63.175 77.425 61.625 77.5 60.05 77.5C58.45 77.5 56.85 77.425 55.275 77.275C54.6 77.225 53.95 77.15 53.3 77.05C52.925 77 52.55 76.95 52.2 76.9C51.925 76.85 51.65 76.825 51.375 76.775C48.6 76.325 45.85 75.65 43.175 74.75C41.175 74.075 39.65 72.65 38.975 70.825C38.3 69.025 38.55 66.925 39.625 65.125L42.45 60.425C43.05 59.4 43.6 57.425 43.6 56.225V51.575C43.6 42.5 50.975 35.125 60.05 35.125C69.1 35.125 76.475 42.5 76.475 51.575V56.225C76.475 57.425 77.025 59.4 77.65 60.425L80.475 65.125C81.5 66.875 81.7 68.925 81 70.825Z" fill="#219FFF"/>
<path d="M59.9996 56.9C58.9496 56.9 58.0996 56.05 58.0996 55V47.25C58.0996 46.2 58.9496 45.35 59.9996 45.35C61.0496 45.35 61.8996 46.2 61.8996 47.25V55C61.8746 56.05 61.0246 56.9 59.9996 56.9Z" fill="#219FFF"/>
<path d="M67.0752 80.025C66.0252 82.925 63.2502 85 60.0002 85C58.0252 85 56.0752 84.2 54.7002 82.775C53.9002 82.025 53.3002 81.025 52.9502 80C53.2752 80.05 53.6002 80.075 53.9502 80.125C54.5252 80.2 55.1252 80.275 55.7252 80.325C57.1502 80.45 58.6002 80.525 60.0502 80.525C61.4752 80.525 62.9002 80.45 64.3002 80.325C64.8252 80.275 65.3502 80.25 65.8502 80.175C66.2502 80.125 66.6502 80.075 67.0752 80.025Z" fill="#219FFF"/>
</svg>
