<svg width="120" height="120" viewBox="0 0 120 120" fill="none" xmlns="http://www.w3.org/2000/svg">
<circle cx="60" cy="60" r="59" fill="#21D3A0" fill-opacity="0.15" stroke="#21D3A0" stroke-width="2"/>
<path opacity="0.4" d="M68.7 37.5H48.8C40.175 37.5 35 42.65 35 51.3V71.175C35 79.85 40.175 85 48.8 85H68.675C77.325 85 82.475 79.85 82.475 71.2V51.3C82.5 42.65 77.325 37.5 68.7 37.5Z" fill="#21D3A0"/>
<path d="M82.5497 37.45C78.0747 32.95 73.6997 32.85 69.0997 37.45L66.2747 40.25C66.0247 40.5 65.9497 40.85 66.0497 41.175C67.7997 47.3 72.6997 52.2 78.8247 53.95C78.8997 53.975 79.0247 53.975 79.0997 53.975C79.3497 53.975 79.5997 53.875 79.7747 53.7L82.5497 50.9C84.8247 48.625 85.9497 46.45 85.9497 44.225C85.9497 41.975 84.8247 39.75 82.5497 37.45Z" fill="#21D3A0"/>
<path d="M74.6498 56.05C73.9748 55.725 73.3248 55.4 72.7248 55.025C72.2248 54.725 71.7248 54.4 71.2498 54.05C70.8498 53.8 70.3998 53.425 69.9498 53.05C69.8998 53.025 69.7498 52.9 69.5498 52.7C68.7748 52.075 67.9498 51.225 67.1748 50.3C67.1248 50.25 66.9748 50.1 66.8498 49.875C66.5998 49.6 66.2248 49.125 65.8998 48.6C65.6248 48.25 65.2998 47.75 64.9998 47.225C64.6248 46.6 64.2998 45.975 63.9998 45.325C63.6748 44.625 63.4248 43.975 63.1998 43.35L49.7498 56.8C48.8748 57.675 48.0248 59.325 47.8498 60.55L46.7748 68C46.5498 69.575 46.9748 71.05 47.9498 72.025C48.7748 72.85 49.8998 73.275 51.1498 73.275C51.4248 73.275 51.6998 73.25 51.9748 73.225L59.3998 72.175C60.6248 72 62.2748 71.175 63.1498 70.275L76.5998 56.825C75.9748 56.625 75.3498 56.35 74.6498 56.05Z" fill="#21D3A0"/>
</svg>
